<svg xmlns="http://www.w3.org/2000/svg" width="1440" height="740" fill="none"><mask id="a" width="1440" height="740" x="0" y="0" maskUnits="userSpaceOnUse" style="mask-type:alpha"><path fill="#D9D9D9" d="M0 0h1440v740H0z"/></mask><g mask="url(#a)"><mask id="b" width="1440" height="800" x="0" y="-60" maskUnits="userSpaceOnUse" style="mask-type:luminance"><path fill="#fff" d="M1440-60H0v800h1440z"/></mask><g mask="url(#b)"><path fill="#fff" d="M1440-60H0v800h1440z"/><path fill="#5277CA" d="M1440-60H0v800h1440z"/><path fill="#325AB4" d="M601.21 740H-44.83l-226.51-369.5 55.45-23.62c174.93-40.87 281.16-9.31 345.51 26.38 85.32 47.32 108.33 108.2 216.04 202.66C442.84 661.15 537.88 711.37 601.21 740" opacity=".8"/><path fill="#325AB4" d="M1062.73 246.5C883.55 32.1 689-92 253-60.5l668.61-451.89 886.74 744.06-336.65 424.05c-91.02-72.37-185-141.22-408.97-409.22"/><path fill="#1C1C64" d="M112.26 498.24c53.8 28.25 108.1 66.73 130.74 125.54 18.97 49.27 10.56 99.44-17.62 135.43-28.04 35.81-68.22 45.67-86.41 49.72-92.6 20.65-173.72-38.03-183.8-45.55-54.94-40.98-89.84-103.18-111.84-166.96-13.48-39.09-23.75-79.47-28.89-120.53-2.56-20.44-3.86-41.07-3.37-61.66.43-18.14 3.17-37.27-4.46-54.41-11.7-26.28-33.11-5.26-40.47 10.61-7.79 16.8-10.69 35.47-14.37 53.47-13.64 66.7-28.33 134.04-76.57 185.22-44.55 47.27-129.89 52.39-174.14 1.99-58.06-66.14-9.91-179.95 20.92-247.82 29.92-65.86 66.91-129.92 109.67-188.33 56-76.5 105.6-137.77 227.5-227.5 121.89-89.73 207.89-139 346.99-199 42.22-18.21 103.42-31 141.74 3.11 44.71 39.8 15.72 103.57-18.01 139.56C254.27-28.21 107.02 54.52 42.84 85.8c-20.69 7.61-53.77 25.82-20.57 37.75 41.5 14.91 247.08-62.63 322.97-86.36s208.27-20.23 220.39 54.77c16.26 100.67-115.3 128.19-188.01 138.77-56.5 8.22-112.95 10.73-169.71 2.92-41.02-5.65-85.11-25.61-126.36-25.62-20.83 0-33.5 20.57-22.25 38.87 5.37 8.73 15.68 14.11 24.56 18.5 31.5 15.61 66.66 24.44 100.19 34.5 33.68 10.11 85.98 26.48 188.25 69.92 79.18 33.62 208.51 89.75 171.79 202.12-26.93 82.39-123.46 98.46-191.81 59.91-32.16-18.14-58.49-44.19-83.91-70.57-23.66-24.54-50.45-47.21-74.81-71.63-51.6-51.73-104.59-103.08-167.68-140.76-43.73-26.12-91.2-59.02-143.7-62.78-48.53-3.48-28.88 49.85-10.14 70.72 64.06 71.36 157.95 98.22 240.21 141.42z"/><path fill="#325AB4" d="M737.18 756.05c-295.79-209.98-188.31-510.56-90.81-638.17C779.69-56.61 992.1-79.27 1094-52.25c373.8 124.14 374.06 429 351.97 566.71-18.99 118.35-328.99 511.19-708.79 241.59"/><path fill="#5A7ED0" fill-rule="evenodd" d="M768.74 7.24C887 61.32 976.64 143.49 1062.73 246.5c172.03 205.84 267.37 294.2 343.58 356.9 22.41-35.15 36.11-66.84 39.66-88.94C1468.06 376.75 1467.8 71.88 1094-52.25c-74.22-19.68-207.05-13-325.26 59.49" clip-rule="evenodd" opacity=".8"/><path fill="#E6B95F" d="M841.18 796h289.78l528.41-466.08L1406.84 484l-245.6 220.1 292.3-620.28-200.57 296.8-158.78 323.48 78-732.55-150.43 732.55L907.55 57.01l-66.37-301.5L907.55 484l38.5 220.1-173.61-360.16L602.51-95.15l137.89 498L877.37 704.1l-442-620.28L642.9 447.51 821.72 704.1 624.37 544.51l-254.5-180 232.64 225.5 197.36 169 41.3 37z"/><path fill="#5A7ED0" d="M237.84 740c-3.57 6.76-7.74 13.19-12.46 19.22-28.04 35.81-68.22 45.67-86.41 49.72-92.6 20.65-173.72-38.03-183.8-45.55-54.94-40.99-89.84-103.18-111.84-166.97-8.17-23.69-15.16-47.86-20.54-72.37-3.5-15.93-6.32-31.99-8.34-48.16-2.56-20.44-3.86-41.07-3.37-61.66.42-18.15 3.17-37.27-4.47-54.42-11.7-26.28-33.11-5.26-40.47 10.62-6.08 13.14-9.19 27.41-12.01 41.62l-25.47-41.55 55.45-23.62c25.93-6.06 50.34-10.52 73.34-13.62 3.89 9.11 9.28 17.64 14.59 23.56 64.06 71.35 157.95 98.22 240.22 141.42 53.8 28.25 108.1 66.72 130.74 125.54 15.79 41.01 12.61 82.65-5.16 116.22M442.58 651.03c-30.39 3.05-62.64-3.61-90.29-19.2-32.16-18.13-58.49-44.19-83.91-70.56-23.66-24.54-50.45-47.21-74.81-71.63-51.6-51.73-104.59-103.07-167.69-140.76-9.56-5.71-19.3-11.75-29.23-17.73 57.3 7.12 100.47 24.09 132.97 42.11 85.32 47.33 108.33 108.2 216.04 202.66 32.94 28.89 65.63 53.75 96.92 75.11" opacity=".8"/></g></g></svg>