<svg width="1440" height="740" viewBox="0 0 1440 740" fill="none" xmlns="http://www.w3.org/2000/svg">
<mask id="mask0_11_169" style="mask-type:alpha" maskUnits="userSpaceOnUse" x="0" y="0" width="1440" height="740">
<rect width="1440" height="740" fill="#D9D9D9"/>
</mask>
<g mask="url(#mask0_11_169)">
<mask id="mask1_11_169" style="mask-type:luminance" maskUnits="userSpaceOnUse" x="0" y="-60" width="1440" height="800">
<path d="M1440 -60H0V740H1440V-60Z" fill="white"/>
</mask>
<g mask="url(#mask1_11_169)">
<path d="M1440 -60H0V740H1440V-60Z" fill="white"/>
<path d="M1440 -60H0V740H1440V-60Z" fill="#5277CA"/>
<path opacity="0.8" d="M601.21 740H-44.8303L-271.34 370.5L-215.89 346.88C-40.9603 306.01 65.2697 337.57 129.62 373.26C214.94 420.58 237.95 481.46 345.66 575.92C442.84 661.15 537.88 711.37 601.21 740Z" fill="#325AB4"/>
<path d="M1062.73 246.5C883.55 32.0999 689 -92.0001 253 -60.5001L921.61 -512.39L1808.35 231.67L1471.7 655.72C1380.68 583.35 1286.7 514.5 1062.73 246.5Z" fill="#325AB4"/>
<path d="M112.26 498.24C166.06 526.49 220.36 564.97 243 623.78C261.97 673.05 253.56 723.22 225.38 759.21C197.34 795.02 157.16 804.88 138.97 808.93C46.3699 829.58 -34.7502 770.9 -44.8301 763.38C-99.7701 722.4 -134.67 660.2 -156.67 596.42C-170.15 557.33 -180.42 516.95 -185.56 475.89C-188.12 455.45 -189.42 434.82 -188.93 414.23C-188.5 396.09 -185.76 376.96 -193.39 359.82C-205.09 333.54 -226.5 354.56 -233.86 370.43C-241.65 387.23 -244.55 405.9 -248.23 423.9C-261.87 490.6 -276.56 557.94 -324.8 609.12C-369.35 656.39 -454.69 661.51 -498.94 611.11C-557 544.97 -508.85 431.16 -478.02 363.29C-448.1 297.43 -411.11 233.37 -368.35 174.96C-312.35 98.4599 -262.75 37.19 -140.85 -52.54C-18.9601 -142.27 67.0398 -191.54 206.14 -251.54C248.36 -269.75 309.56 -282.54 347.88 -248.43C392.59 -208.63 363.6 -144.86 329.87 -108.87C254.27 -28.21 107.02 54.52 42.8398 85.8C22.1498 93.4099 -10.9302 111.62 22.2698 123.55C63.7698 138.46 269.35 60.92 345.24 37.19C421.13 13.46 553.51 16.9599 565.63 91.9599C581.89 192.63 450.33 220.15 377.62 230.73C321.12 238.95 264.67 241.46 207.91 233.65C166.89 228 122.8 208.04 81.5499 208.03C60.7198 208.03 48.0499 228.6 59.2999 246.9C64.6699 255.63 74.9799 261.01 83.8599 265.4C115.36 281.01 150.52 289.84 184.05 299.9C217.73 310.01 270.03 326.38 372.3 369.82C451.48 403.44 580.81 459.57 544.09 571.94C517.16 654.33 420.63 670.4 352.28 631.85C320.12 613.71 293.79 587.66 268.37 561.28C244.71 536.74 217.92 514.07 193.56 489.65C141.96 437.92 88.9698 386.57 25.8798 348.89C-17.8502 322.77 -65.3202 289.87 -117.82 286.11C-166.35 282.63 -146.7 335.96 -127.96 356.83C-63.9001 428.19 29.9899 455.05 112.25 498.25L112.26 498.24Z" fill="#1C1C64"/>
<path d="M737.18 756.05C441.39 546.07 548.87 245.49 646.37 117.88C779.69 -56.6103 992.1 -79.2703 1094 -52.2503C1467.8 71.8897 1468.06 376.75 1445.97 514.46C1426.98 632.81 1116.98 1025.65 737.18 756.05Z" fill="#325AB4"/>
<path opacity="0.8" fill-rule="evenodd" clip-rule="evenodd" d="M768.74 7.23983C887 61.3198 976.64 143.49 1062.73 246.5C1234.76 452.34 1330.1 540.7 1406.31 603.4C1428.72 568.25 1442.42 536.56 1445.97 514.46C1468.06 376.75 1467.8 71.8798 1094 -52.2502C1019.78 -71.9302 886.95 -65.2502 768.74 7.23983Z" fill="#5A7ED0"/>
<path d="M841.18 796H1130.96L1659.37 329.92L1406.84 484L1161.24 704.1L1453.54 83.8198L1252.97 380.62L1094.19 704.1L1172.19 -28.4502L1021.76 704.1L907.55 57.0098L841.18 -244.49L907.55 484L946.05 704.1L772.44 343.94L602.51 -95.1502L740.4 402.85L877.37 704.1L435.37 83.8198L642.9 447.51L821.72 704.1L624.37 544.51L369.87 364.51L602.51 590.01L799.87 759.01L841.17 796.01L841.18 796Z" fill="#E6B95F"/>
<path opacity="0.8" d="M237.84 740C234.27 746.76 230.1 753.19 225.38 759.22C197.34 795.03 157.16 804.89 138.97 808.94C46.3697 829.59 -34.7503 770.91 -44.8303 763.39C-99.7703 722.4 -134.67 660.21 -156.67 596.42C-164.84 572.73 -171.83 548.56 -177.21 524.05C-180.71 508.12 -183.53 492.06 -185.55 475.89C-188.11 455.45 -189.41 434.82 -188.92 414.23C-188.5 396.08 -185.75 376.96 -193.39 359.81C-205.09 333.53 -226.5 354.55 -233.86 370.43C-239.94 383.57 -243.05 397.84 -245.87 412.05L-271.34 370.5L-215.89 346.88C-189.96 340.82 -165.55 336.36 -142.55 333.26C-138.66 342.37 -133.27 350.9 -127.96 356.82C-63.9003 428.17 29.9897 455.04 112.26 498.24C166.06 526.49 220.36 564.96 243 623.78C258.79 664.79 255.61 706.43 237.84 740Z" fill="#5A7ED0"/>
<path opacity="0.8" d="M442.58 651.03C412.19 654.08 379.94 647.42 352.29 631.83C320.13 613.7 293.8 587.64 268.38 561.27C244.72 536.73 217.93 514.06 193.57 489.64C141.97 437.91 88.9799 386.57 25.8799 348.88C16.3199 343.17 6.5799 337.13 -3.3501 331.15C53.9499 338.27 97.1199 355.24 129.62 373.26C214.94 420.59 237.95 481.46 345.66 575.92C378.6 604.81 411.29 629.67 442.58 651.03Z" fill="#5A7ED0"/>
</g>
</g>
</svg>
